<?xml version="1.0" standalone="no"?><!DOCTYPE svg PUBLIC "-//W3C//DTD SVG 1.1//EN" "http://www.w3.org/Graphics/SVG/1.1/DTD/svg11.dtd"><svg t="1746866904696" class="icon" viewBox="0 0 1024 1024" version="1.1" xmlns="http://www.w3.org/2000/svg" p-id="7328" xmlns:xlink="http://www.w3.org/1999/xlink" width="200" height="200"><path d="M514.432 74.688c93.44 0 166.912 0 224.192 7.68 58.752 7.872 105.344 24.384 141.952 61.056 36.608 36.608 53.12 83.2 61.056 141.952 7.68 57.28 7.68 130.688 7.68 224.192v4.864c0 93.44 0 166.912-7.68 224.192-7.872 58.752-24.384 105.344-61.056 141.952-36.608 36.608-83.2 53.12-141.952 61.056-57.28 7.68-130.688 7.68-224.192 7.68h-4.864c-93.44 0-166.912 0-224.192-7.68-58.752-7.872-105.344-24.384-141.952-61.056-36.672-36.608-53.12-83.2-61.056-141.952-7.68-57.28-7.68-130.688-7.68-224.192v-4.864c0-93.44 0-166.912 7.68-224.192 7.872-58.752 24.384-105.344 61.056-141.952 36.608-36.672 83.2-53.12 141.952-61.056 57.28-7.68 130.688-7.68 224.192-7.68h4.864z m-16 374.464C489.6 448 479.552 448 471.04 448h-1.728a42.688 42.688 0 1 0 0 85.312V704a42.688 42.688 0 1 0 85.376 0V531.648c0-8.512 0-18.688-1.216-27.392a63.488 63.488 0 0 0-17.536-37.504 63.488 63.488 0 0 0-37.504-17.6z m13.376-171.84A42.56 42.56 0 0 0 469.312 320c0 23.552 19.008 42.688 42.496 42.688h0.384A42.56 42.56 0 0 0 554.688 320a42.56 42.56 0 0 0-42.496-42.688h-0.384z" fill="#333333" p-id="7329" class="custom-cursor-on-hover"></path></svg>