<?xml version="1.0" standalone="no"?><!DOCTYPE svg PUBLIC "-//W3C//DTD SVG 1.1//EN" "http://www.w3.org/Graphics/SVG/1.1/DTD/svg11.dtd"><svg t="1746866853961" class="icon" viewBox="0 0 1024 1024" version="1.1" xmlns="http://www.w3.org/2000/svg" p-id="5261" xmlns:xlink="http://www.w3.org/1999/xlink" width="200" height="200"><path d="M1022.782329 442.108228a22.897638 22.897638 0 0 0-7.992194-17.113287L526.137363 5.524605a22.97756 22.97756 0 0 0-29.850847 0L281.586197 189.814623V75.13662a22.887647 22.887647 0 0 0-22.897638-22.867667H157.956936a22.877657 22.877657 0 0 0-22.887648 22.867667V315.591786L7.793589 424.994941A22.677852 22.677852 0 0 0 0.001199 442.338003V562.450699c0 9.290926 5.314809 17.982438 13.886438 21.598906a22.398126 22.398126 0 0 0 8.731473 1.768273 22.797735 22.797735 0 0 0 14.885462-5.524605l60.940484-52.368855V921.100434a102.899506 102.899506 0 0 0 103.009399 102.899506h179.025161a22.97756 22.97756 0 0 1-0.459552-4.575531V703.902554a45.765305 45.765305 0 0 1 45.785286-45.735334h153.390195a45.765305 45.765305 0 0 1 45.785286 45.735334v315.521855a22.97756 22.97756 0 0 1-0.459552 4.575531H824.196273a102.959448 102.959448 0 0 0 102.969437-102.899506V528.363989l58.512856 50.220953a23.586964 23.586964 0 0 0 21.349149 5.194926A22.897638 22.897638 0 0 0 1024.001139 561.451674z" fill="#040000" p-id="5262"></path></svg>